<svg width="1080" height="1080" viewBox="0 0 1080 1080" xmlns="http://www.w3.org/2000/svg">
  <rect width="100%" height="100%" fill="#F9FBF6"/>
  <g transform="translate(0,1080) scale(1,-1)">
    <path d="M964 642 c-5 -12 -23 -38 -35 -53 -10 -13 -18 -22 -37 -41 -14 -15
-15 -16 -15 -20 -2 -13 -16 -59 -23 -74 0 -2 -2 -8 -5 -12 -5 -13 -15 -35 -20
-43 -9 -18 -27 -44 -32 -51 -5 -5 0 -2 15 9 26 18 43 32 43 35 0 0 0 1 1 1 0
0 4 5 7 10 4 6 8 12 10 15 2 2 5 7 6 9 2 2 4 5 4 6 3 5 10 17 10 17 0 0 4 7 8
15 4 8 8 14 8 15 0 0 2 5 5 11 9 17 11 23 15 32 2 5 4 9 4 11 2 3 7 18 13 36
8 24 9 28 14 49 3 9 6 19 6 21 2 5 1 6 -2 2z" fill="#294F1E" stroke="none"/>
    <path d="M119 642 c0 0 1 -4 2 -9 1 -4 3 -10 4 -13 5 -21 20 -69 26 -82 1 -4
2 -5 6 -15 4 -11 6 -14 9 -22 12 -25 21 -42 39 -72 3 -6 16 -26 18 -29 1 0 2
-2 3 -2 0 -1 1 -3 1 -3 0 -2 11 -12 21 -20 10 -7 19 -14 25 -18 2 -2 7 -5 10
-7 6 -4 8 -5 5 -1 -1 1 -2 2 -2 3 0 0 -2 3 -5 6 -5 7 -10 15 -14 22 -1 2 -4 7
-6 12 -6 8 -25 47 -25 49 0 1 -1 3 -2 4 -1 3 -8 21 -14 39 -4 12 -11 38 -12
44 0 4 -2 6 -17 22 -10 10 -19 19 -20 21 -2 2 -4 4 -4 3 -1 0 -1 0 -1 1 1 0 0
2 -1 3 -2 2 -10 12 -18 23 -1 2 -7 11 -13 19 -6 9 -11 16 -11 15 -1 0 -1 0 0
1 0 1 -1 3 -2 5 -1 1 -2 2 -2 1z m108 -243 c0 -1 0 -1 0 -1 -1 0 -1 0 -1 1 -1
1 -1 1 0 1 1 0 1 0 1 -1z" fill="#294F1E" stroke="none"/>
    <path d="M290 471 c0 -2 0 -6 1 -6 0 -1 2 -6 4 -10 8 -26 21 -53 41 -86 4 -6
15 -23 16 -24 0 0 3 -4 5 -7 4 -7 9 -12 13 -18 1 -1 4 -4 6 -8 10 -12 12 -14
21 -17 8 -3 20 -6 31 -9 2 -1 5 -2 6 -2 1 -1 3 -1 4 -1 2 0 6 -1 11 -2 4 -1 9
-2 10 -2 2 0 2 0 1 2 -4 3 -19 27 -28 44 -7 13 -22 43 -24 48 -1 2 -5 10 -9
18 -6 13 -8 18 -11 26 -3 8 -4 8 -4 10 -1 1 -5 3 -11 5 -28 11 -60 26 -79 38
-2 1 -4 2 -4 1z m168 -191 c-1 0 -1 0 -2 0 -1 1 -1 1 0 1 1 0 2 0 2 -1z" fill="#294F1E" stroke="none"/>
    <path d="M790 469 c-2 -2 -4 -3 -3 -3 0 -1 0 -1 0 -1 -1 0 -12 -5 -24 -11 -12
-6 -26 -12 -29 -13 -4 -2 -10 -4 -13 -5 -4 -2 -9 -4 -12 -5 -6 -2 -7 -2 -9 -8
-1 -3 -4 -9 -6 -13 -2 -4 -3 -7 -3 -8 0 0 -2 -5 -5 -11 -3 -5 -5 -10 -5 -10 0
-2 -22 -48 -25 -52 -1 -1 -4 -7 -7 -12 -3 -6 -6 -11 -7 -13 -1 -1 -4 -6 -7
-10 -2 -4 -5 -8 -5 -8 -1 0 -1 -1 -1 -2 0 0 -1 -1 -1 -2 -1 0 -2 -1 -2 -2 -1
-1 0 -1 2 -1 2 0 2 0 1 1 -1 1 -1 1 1 1 2 -1 11 1 25 4 7 2 28 8 35 11 8 2 9
3 15 11 21 26 35 46 48 68 8 14 26 49 30 61 2 3 4 7 4 9 1 1 3 6 4 12 2 6 4
11 5 12 0 3 -2 2 -6 0z" fill="#294F1E" stroke="none"/>
    <path d="M481 404 c1 -1 1 -4 2 -7 1 -3 2 -9 4 -14 1 -5 3 -11 4 -15 3 -14 15
-50 22 -70 4 -11 5 -13 9 -21 l2 -5 19 0 c17 0 19 0 20 2 0 1 3 8 6 17 4 8 7
16 7 17 0 2 1 4 2 6 1 2 3 6 3 9 1 3 3 6 3 8 0 1 2 5 3 9 1 4 2 9 3 10 1 3 3
12 6 20 3 11 8 35 8 36 -1 0 -4 0 -9 -1 -16 -2 -55 -3 -77 -2 -11 1 -23 2 -27
2 -9 1 -10 1 -10 -1z m121 0 c-1 0 -1 0 -2 0 -1 1 -1 1 0 1 1 0 2 0 2 -1z" fill="#294F1E" stroke="none"/>
    <path d="M66 797 c0 -1 -1 -17 -1 -36 0 -32 1 -54 4 -73 1 -4 1 -10 2 -13 3
-21 15 -67 21 -81 0 -2 3 -9 5 -15 2 -6 5 -13 6 -15 1 -3 4 -9 6 -13 8 -18 10
-23 14 -28 2 -3 3 -5 3 -6 0 0 1 -1 2 -3 1 -1 2 -3 2 -4 0 -1 0 -2 1 -2 0 0 1
-1 2 -3 1 -1 3 -4 4 -6 1 -2 3 -5 4 -7 1 -2 3 -5 5 -7 1 -2 4 -6 6 -9 2 -3 4
-7 5 -8 1 -1 5 -6 10 -11 12 -16 18 -23 38 -43 11 -12 15 -15 17 -14 1 0 1 0
1 -1 -1 -1 1 -3 3 -6 3 -2 4 -3 3 -1 -1 1 -2 2 -2 2 0 1 -3 6 -7 11 -8 11 -9
12 -16 25 -5 9 -6 9 -10 17 -7 10 -18 32 -27 51 -5 11 -13 30 -13 31 0 1 -1 3
-2 6 -3 7 -6 13 -12 32 -8 24 -11 34 -18 61 -2 6 -3 12 -4 13 0 2 0 2 1 2 2
-1 1 0 -1 3 -3 5 -20 41 -22 45 0 1 -1 3 -1 4 -2 2 -11 28 -16 47 -4 13 -12
46 -12 53 0 2 -1 3 -1 2z" fill="#719B39" stroke="none"/>
    <path d="M1019 792 c-5 -28 -16 -68 -25 -89 -1 -2 -2 -5 -3 -8 -3 -8 -21 -44
-24 -48 -1 -2 -2 -3 -1 -3 1 1 1 1 1 0 0 -2 -3 -13 -4 -18 -1 -2 -2 -8 -4 -14
-2 -7 -4 -15 -5 -18 -3 -11 -17 -52 -19 -56 -1 -2 -2 -5 -3 -7 0 -1 -1 -3 -1
-3 0 -2 -9 -22 -17 -38 -8 -18 -26 -50 -32 -59 -2 -4 -4 -6 -4 -7 0 0 -2 -2
-4 -5 -2 -3 -4 -6 -4 -7 0 0 0 -1 -1 -1 0 0 -3 -4 -6 -8 -5 -9 -5 -9 -8 -12
-3 -5 15 12 31 29 16 16 21 22 40 46 5 7 26 37 26 39 0 0 1 1 1 2 1 1 3 4 5 7
1 3 4 7 5 10 3 5 15 29 15 29 0 1 2 4 3 8 5 10 5 11 10 23 2 5 4 10 4 12 2 3
9 30 13 44 2 7 5 24 6 34 1 6 2 14 3 18 0 4 1 12 2 17 2 11 3 83 1 85 -1 2 -1
2 -1 -2z m-154 -391 c0 -1 0 -1 -1 -1 -1 0 -1 0 0 1 0 1 0 1 1 1 0 0 0 0 0 -1z" fill="#719B39" stroke="none"/>
    <path d="M955 627 c-1 -1 -1 -2 -1 -2 1 0 1 1 2 2 1 1 1 2 1 2 -1 0 -1 -1 -2
-2z" fill="#719B39" stroke="none"/>
    <path d="M131 626 c0 -2 1 -3 2 -3 0 0 -2 4 -3 5 -1 0 0 -1 1 -2z" fill="#719B39" stroke="none"/>
    <path d="M941 607 c-1 -3 -2 -4 -1 -3 2 1 5 7 5 7 -1 0 -2 -2 -4 -4z" fill="#719B39" stroke="none"/>
    <path d="M148 600 c0 -1 1 -1 2 -2 1 -1 1 -1 0 0 -1 2 -2 2 -2 2z" fill="#719B39" stroke="none"/>
    <path d="M935 597 c-1 -1 -1 -1 0 0 1 1 2 1 2 2 0 0 -1 0 -2 -2z" fill="#719B39" stroke="none"/>
    <path d="M930 591 c-2 -2 -3 -4 -3 -4 1 0 2 2 4 4 2 2 3 4 3 4 -1 0 -2 -2 -4
-4z" fill="#719B39" stroke="none"/>
    <path d="M159 585 c1 -1 3 -3 3 -4 2 -1 1 1 -2 4 l-3 4 2 -4z" fill="#719B39" stroke="none"/>
    <path d="M924 584 c-1 -1 -1 -2 -1 -2 0 -1 1 0 2 2 2 3 2 3 -1 0z" fill="#719B39" stroke="none"/>
    <path d="M918 577 l-1 -2 2 1 c2 2 2 3 2 3 -1 0 -2 -1 -3 -2z" fill="#719B39" stroke="none"/>
    <path d="M165 578 c0 0 1 -2 3 -4 l4 -2 -3 3 c-3 3 -4 3 -4 3z" fill="#719B39" stroke="none"/>
    <path d="M910 568 l-3 -4 4 3 c4 4 4 5 4 5 0 0 -2 -2 -5 -4z" fill="#719B39" stroke="none"/>
    <path d="M174 568 c0 -1 2 -2 2 -2 0 0 -1 1 -1 2 -1 1 -3 2 -3 2 0 0 1 -1 2
-2z" fill="#719B39" stroke="none"/>
    <path d="M190 551 c6 -7 12 -12 12 -12 0 0 -5 5 -11 12 -6 6 -12 11 -12 11 0
0 5 -5 11 -11z" fill="#719B39" stroke="none"/>
    <path d="M900 557 l-3 -4 4 3 c4 4 4 5 4 5 0 0 -2 -2 -5 -4z" fill="#719B39" stroke="none"/>
    <path d="M889 546 l-5 -6 6 5 c6 6 6 7 6 7 0 0 -3 -3 -7 -6z" fill="#719B39" stroke="none"/>
    <path d="M876 532 c-8 -8 -19 -17 -39 -32 -7 -6 -33 -23 -38 -26 -2 -1 -3 -2
-3 -3 0 -1 -6 -20 -8 -26 -1 -2 -2 -5 -3 -7 -4 -10 -21 -45 -28 -57 -3 -5 -5
-9 -5 -9 0 -1 0 -1 -1 -1 0 0 -1 -2 -2 -4 -1 -2 -3 -5 -4 -6 -1 -1 -3 -5 -6
-8 -2 -4 -5 -8 -5 -9 -1 -1 -4 -4 -6 -7 -2 -3 -5 -7 -6 -9 -7 -9 -19 -25 -20
-27 -1 -1 9 2 12 3 2 1 5 3 9 4 3 1 6 3 5 3 0 1 0 1 1 1 1 -1 5 1 10 3 6 3 10
5 11 5 0 0 29 15 37 20 6 4 6 3 14 15 3 4 6 8 6 9 1 0 3 3 9 12 4 6 12 20 19
36 5 9 22 46 23 51 0 1 1 3 1 4 0 0 1 1 1 3 1 1 3 7 5 15 6 20 8 26 9 34 3 12
4 14 6 16 3 4 0 2 -4 -3z" fill="#719B39" stroke="none"/>
    <path d="M207 533 c1 -2 2 -3 2 -4 -1 0 0 -2 0 -3 1 -3 6 -23 8 -30 2 -9 17
-50 18 -51 1 -1 1 -2 1 -3 0 -1 12 -26 18 -37 3 -8 13 -24 16 -29 2 -2 3 -4 3
-5 0 0 3 -4 5 -8 3 -4 8 -10 10 -13 2 -4 5 -7 9 -9 2 -1 7 -4 10 -6 13 -7 56
-28 59 -28 0 0 3 -1 5 -2 4 -1 6 -2 11 -4 3 -1 3 -1 2 1 0 1 -2 3 -3 4 -2 2
-3 3 -3 4 0 1 0 1 -1 1 -2 0 -27 36 -43 60 -10 17 -23 42 -30 60 -3 6 -6 13
-7 15 0 1 -1 3 -1 4 0 1 -2 7 -5 14 -1 1 -1 3 -2 5 0 3 0 3 1 3 4 -2 2 0 -3 2
-5 2 -31 20 -40 27 -12 9 -18 14 -25 20 -5 4 -9 7 -10 7 -1 1 -2 2 -3 3 0 1
-1 2 -2 3 -1 1 -1 1 0 -1z" fill="#719B39" stroke="none"/>
    <path d="M311 461 c0 -1 2 -2 4 -3 2 -1 4 -2 4 -2 0 1 -2 2 -4 3 -2 1 -4 2 -4
2z" fill="#719B39" stroke="none"/>
    <path d="M761 454 c-2 -1 -3 -2 -3 -2 1 0 7 3 7 4 0 0 0 0 -4 -2z" fill="#719B39" stroke="none"/>
    <path d="M753 450 c-1 -1 0 -1 0 0 2 0 2 1 1 1 0 0 -1 0 -1 -1z" fill="#719B39" stroke="none"/>
    <path d="M334 449 c0 -1 1 -1 2 -1 0 1 -1 1 -2 1 -1 1 -1 1 0 0z" fill="#719B39" stroke="none"/>
    <path d="M337 448 c0 -1 6 -4 7 -4 0 0 -2 1 -4 2 -1 1 -3 2 -3 2z" fill="#719B39" stroke="none"/>
    <path d="M744 446 c-1 -1 -1 -1 0 -1 0 0 1 0 2 1 1 1 1 1 1 1 -1 0 -2 0 -3 -1z" fill="#719B39" stroke="none"/>
    <path d="M346 443 c1 -1 2 -1 3 -1 0 0 0 0 -1 1 -1 1 -2 1 -2 1 -1 0 -1 0 0
-1z" fill="#719B39" stroke="none"/>
    <path d="M354 440 c0 -1 1 -1 2 -1 0 1 -1 1 -2 1 -1 1 -1 1 0 0z" fill="#719B39" stroke="none"/>
    <path d="M730 440 c-1 -1 -1 -1 0 -1 0 0 1 0 2 1 1 1 1 1 1 1 -1 0 -2 0 -3 -1z" fill="#719B39" stroke="none"/>
    <path d="M722 437 c-1 -1 -1 -1 0 -1 0 0 1 0 2 1 1 1 1 1 1 1 -1 0 -2 0 -3 -1z" fill="#719B39" stroke="none"/>
    <path d="M372 433 c1 -1 2 -1 3 -1 0 0 0 0 -1 1 -1 1 -2 1 -2 1 -1 0 -1 0 0
-1z" fill="#719B39" stroke="none"/>
    <path d="M710 432 c-2 0 -3 -1 -2 -1 1 0 3 1 4 2 3 1 1 1 -2 -1z" fill="#719B39" stroke="none"/>
    <path d="M384 426 c2 -3 3 -6 3 -6 0 -1 1 -3 5 -12 0 -2 3 -8 6 -14 3 -7 6
-12 6 -12 0 -2 12 -26 21 -42 3 -7 7 -14 8 -17 3 -6 5 -10 10 -17 4 -7 9 -15
10 -16 1 -2 3 -4 5 -7 2 -2 3 -4 2 -4 -3 0 45 -6 57 -7 l7 0 -1 3 c-4 6 -5 11
-14 32 -7 20 -20 62 -25 85 -3 12 -3 14 -2 14 1 1 1 1 0 0 -2 0 -11 1 -36 6
-15 3 -40 9 -47 12 -1 0 -5 2 -8 3 -4 1 -7 2 -8 2 -1 1 0 -1 1 -3z" fill="#719B39" stroke="none"/>
    <path d="M702 429 c-1 -1 -21 -7 -29 -9 -4 -1 -8 -2 -9 -2 -1 -1 -18 -5 -33
-8 -4 0 -10 -1 -13 -2 -4 0 -8 -1 -9 -1 -1 -1 -3 -1 -4 -1 -2 1 -2 1 -1 0 1 0
1 -1 0 -2 0 -1 -1 -4 -2 -8 0 -4 -2 -8 -2 -10 -1 -3 -1 -6 -2 -8 0 -2 -2 -7
-3 -11 -1 -5 -2 -10 -3 -11 0 -1 -2 -6 -3 -10 -5 -17 -11 -33 -18 -51 -4 -10
-8 -20 -8 -21 -1 -2 -1 -2 8 -2 11 1 25 2 38 4 5 1 11 2 13 2 3 0 4 0 3 1 0 1
1 2 2 3 1 2 5 7 9 13 6 10 8 13 16 28 3 5 25 49 27 54 1 2 4 8 6 14 3 5 5 10
5 10 0 1 2 5 4 9 5 11 9 20 9 20 -1 0 -1 0 -1 -1z" fill="#719B39" stroke="none"/>
    <path d="M490 405 c1 0 3 0 4 0 1 1 0 1 -2 1 -2 0 -3 0 -2 -1z" fill="#719B39" stroke="none"/>
    <path d="M592 405 c1 0 3 0 3 0 1 1 0 1 -1 1 -2 0 -3 0 -2 -1z" fill="#719B39" stroke="none"/>
    <path d="M500 404 c2 0 4 0 6 0 2 0 1 1 -3 1 -4 0 -5 -1 -3 -1z" fill="#719B39" stroke="none"/>
    <path d="M581 404 c2 0 4 0 5 0 1 1 0 1 -2 1 -3 0 -4 0 -3 -1z" fill="#719B39" stroke="none"/>
    <path d="M518 403 c2 0 6 0 8 0 2 0 0 1 -4 1 -5 0 -7 -1 -4 -1z" fill="#719B39" stroke="none"/>
    <path d="M553 403 c4 0 10 0 13 0 4 0 1 1 -6 1 -8 0 -10 -1 -7 -1z" fill="#719B39" stroke="none"/>
    <path d="M65 806 c-1 -1 -1 -12 -1 -25 l-1 -23 1 22 c1 12 1 23 1 24 1 2 3 0
3 -5 0 -2 1 -7 1 -11 1 -3 2 -9 3 -13 1 -4 2 -9 3 -12 0 -3 2 -9 3 -13 1 -4 3
-9 3 -11 1 -3 1 -5 2 -6 0 -2 2 -6 3 -10 3 -9 6 -18 7 -19 1 -1 1 -2 1 -3 0 0
1 -4 3 -8 11 -24 12 -25 13 -25 0 1 0 0 0 -2 0 -2 1 -3 2 -1 1 1 1 0 1 -1 -1
-3 3 -11 4 -11 0 1 1 0 0 -1 0 -1 1 -3 2 -5 2 -2 3 -4 3 -5 0 0 3 -5 6 -10 4
-5 8 -12 9 -14 2 -3 4 -5 4 -4 1 0 1 0 1 -1 -1 0 0 -3 2 -5 1 -2 6 -8 10 -13
3 -5 7 -9 7 -9 1 0 1 -1 2 -2 0 -2 4 -6 7 -9 4 -4 7 -8 8 -10 2 -2 9 -10 23
-24 10 -10 11 -10 13 -9 2 1 2 1 2 -1 -1 -2 -1 -3 0 -3 0 0 2 -1 4 -3 6 -5 9
-8 19 -16 4 -3 9 -7 10 -8 2 -1 3 -2 3 -2 1 0 1 -1 2 -1 4 -4 17 -12 19 -12 0
1 1 0 1 0 -1 -1 6 -6 14 -11 1 -1 4 -2 5 -3 9 -6 46 -25 61 -30 5 -3 10 -5 12
-5 3 -1 21 -8 24 -8 1 -1 3 -1 5 -2 3 -1 11 -4 15 -5 2 0 4 -1 6 -2 1 0 4 -1
7 -2 2 0 9 -1 14 -3 9 -2 24 -4 31 -4 1 0 3 -1 2 -1 0 0 4 -1 10 -2 35 -4 100
-4 129 1 15 2 21 3 29 4 3 1 7 2 8 2 1 0 8 2 15 3 7 2 13 3 15 4 1 0 4 2 8 3
12 3 18 5 44 15 22 9 50 23 74 38 19 12 19 12 17 13 -1 0 -1 1 -1 2 1 0 2 0 2
-1 2 -1 1 -2 23 14 8 6 17 14 20 17 3 3 6 5 6 5 1 0 8 6 13 11 20 20 39 41 53
60 5 6 9 13 9 14 -1 0 -1 1 0 1 1 -1 3 2 5 5 2 4 6 10 8 14 3 3 6 8 7 10 0 2
2 4 2 4 0 0 2 3 3 6 1 2 3 5 3 6 2 4 12 23 15 30 2 5 3 9 2 10 0 2 0 2 1 1 2
0 2 0 2 2 0 2 0 3 1 3 0 0 1 2 2 5 1 3 3 7 3 9 3 6 9 26 10 32 0 3 1 6 2 7 0
0 1 2 1 4 2 9 3 16 5 23 1 5 2 10 2 13 0 5 2 5 3 1 0 -1 1 -20 1 -42 0 -24 0
-37 0 -32 1 3 1 23 1 43 0 32 -1 37 -2 38 -2 1 -48 1 -46 0 0 -1 0 -3 -1 -9
-1 -5 -2 -11 -3 -13 -3 -15 -11 -44 -14 -49 0 -1 -1 -3 -1 -3 0 -1 -5 -14 -10
-25 -1 -3 -2 -6 -2 -7 0 0 0 -1 -1 -1 -1 0 -1 -1 -1 -1 0 -2 -12 -24 -20 -38
-2 -4 -4 -8 -4 -8 1 -1 0 -2 0 -1 -1 0 -3 -2 -4 -5 -3 -5 -5 -7 -12 -17 -3 -3
-5 -6 -5 -7 0 0 -2 -3 -6 -7 -3 -3 -5 -6 -5 -7 0 0 -3 -4 -7 -7 -3 -4 -6 -7
-6 -8 0 0 -2 -2 -5 -5 -2 -2 -7 -7 -9 -10 -8 -8 -18 -18 -25 -22 -3 -3 -6 -6
-7 -7 0 0 -1 -1 -1 -1 -1 0 -5 -3 -10 -7 -5 -4 -13 -10 -18 -13 -6 -4 -11 -7
-12 -8 -1 -1 -15 -10 -26 -16 -11 -6 -40 -20 -42 -20 0 0 -2 -1 -10 -4 -2 -1
-4 -2 -5 -2 0 0 -2 -1 -4 -2 -3 -1 -5 -2 -5 -2 -1 0 -4 -1 -6 -2 -14 -5 -44
-13 -60 -16 -4 -1 -11 -2 -15 -3 -22 -4 -63 -6 -93 -4 -32 2 -37 2 -70 9 -17
3 -26 6 -39 10 -6 2 -12 4 -15 4 -6 2 -31 13 -40 17 -11 5 -24 11 -28 14 -3 1
-7 3 -9 5 -2 1 -6 3 -7 4 -1 1 -4 2 -5 3 -2 1 -5 3 -7 4 -2 1 -4 3 -5 4 -1 0
-6 3 -10 7 -5 3 -9 6 -11 7 -6 4 -15 11 -18 14 -2 2 -7 6 -10 9 -7 6 -34 33
-34 33 0 1 -5 7 -10 12 -2 1 -3 3 -3 3 0 1 -1 2 -2 3 -6 7 -9 11 -9 12 0 1 -1
1 -1 1 -1 -1 -2 0 -2 2 -1 3 -7 11 -8 10 -1 0 -1 0 -1 1 1 1 -1 4 -3 8 -3 4
-5 7 -5 8 0 0 -1 1 -1 2 -1 1 -3 2 -3 4 -1 1 -3 4 -4 6 -1 2 -2 5 -3 5 -1 2
-9 18 -13 28 -2 3 -4 8 -6 11 -2 5 -4 10 -8 21 -1 4 -2 8 -3 8 0 1 -2 5 -3 10
-1 5 -3 12 -4 16 -2 4 -4 12 -4 17 -1 5 -3 10 -3 12 -1 1 -1 4 -2 7 -1 5 -1 5
2 6 1 1 -3 2 -23 2 -22 0 -24 -1 -25 -2z m915 -4 c-1 -2 -2 -3 -2 -3 -1 0 -1
1 0 3 2 3 3 2 2 0z m4 -1 c0 -1 0 -2 -1 -2 -1 -1 -1 0 -1 1 0 1 0 2 1 2 1 0 1
-1 1 -1z m-879 -5 c-1 -1 -1 0 -1 2 0 2 0 3 1 2 0 -1 0 -3 0 -4z m5 4 c0 -1 0
-1 -1 -1 -1 0 -1 0 -1 1 0 1 0 1 1 1 1 0 1 0 1 -1z m-39 -5 c-1 -1 -1 0 -1 2
0 1 0 2 1 1 0 0 0 -2 0 -3z m907 -7 c0 -1 0 -1 -1 0 -1 0 -1 1 -1 2 0 2 0 2 1
1 1 -1 1 -2 1 -3z m-896 -14 c0 -1 0 -1 -1 -1 -1 0 -1 -1 -1 -1 0 -1 0 -2 -1
-2 -1 0 -1 1 0 3 2 2 3 3 3 1z m923 -10 c-1 -1 -1 0 -1 1 0 1 0 2 1 1 0 0 0
-2 0 -2z m-925 -8 c0 -1 0 -1 -1 0 -1 0 -1 1 -1 1 0 1 0 1 1 1 1 -1 1 -2 1 -2z
m38 -2 c0 -2 -1 -3 -1 -2 0 2 1 5 1 5 0 0 0 -1 0 -3z m-37 -5 c-1 -1 -1 0 -1
2 0 1 0 2 1 1 0 0 0 -2 0 -3z m923 2 c0 -1 0 -2 -1 -2 -1 0 -1 1 -1 2 0 1 0 2
1 2 1 0 1 -1 1 -2z m-884 -4 c-1 -1 -1 -1 -1 0 0 1 0 2 1 2 0 -1 0 -1 0 -2z
m845 -1 c0 -1 -1 -2 -1 -2 -1 0 -1 1 0 2 1 1 1 2 1 2 1 0 1 -1 0 -2z m-845 -5
c-1 -1 -1 -1 -1 0 0 1 0 2 1 2 0 -1 0 -1 0 -2z m-35 -7 c-1 -1 -1 -1 -1 2 0 2
0 2 1 1 1 -2 1 -3 0 -3z m3 -7 c0 -1 0 -1 -1 -1 -1 0 -1 0 -1 1 0 1 0 1 1 1 1
0 1 0 1 -1z m10 -10 c0 -1 0 -1 -1 1 -1 2 -1 4 0 2 1 -1 1 -2 1 -3z m34 0 c-1
-1 -1 -1 -1 0 0 1 0 2 1 2 0 -1 0 -1 0 -2z m822 0 c-1 -1 -1 -1 -1 0 0 1 0 2
1 2 0 -1 0 -1 0 -2z m40 -5 c-2 -1 -2 1 -1 3 l0 3 1 -3 c0 -1 0 -2 0 -3z
m-901 0 c-1 -1 -1 0 -1 1 0 1 0 2 1 1 0 0 0 -2 0 -2z m862 1 c0 -1 -2 -2 -2
-1 -1 1 0 1 0 1 1 0 2 0 2 0z m-3 -7 c-1 -1 -1 -1 -1 0 0 1 0 2 1 2 0 -1 0 -1
0 -2z m-814 -3 c-1 -1 -1 -1 -1 0 0 1 0 2 1 2 0 -1 0 -1 0 -2z m812 -1 c0 -1
0 -1 -1 -1 -1 0 -1 1 -1 2 0 0 0 1 1 1 1 -1 1 -2 1 -2z m5 -1 c1 0 1 -1 1 -1
0 -1 0 -1 -1 0 -1 1 -2 2 -2 3 0 1 0 1 1 0 0 -1 1 -2 1 -2z m-857 -1 c0 -1 0
-1 0 -1 -1 0 -1 0 -1 1 -1 1 -1 1 0 1 1 0 1 0 1 -1z m889 -6 c0 -1 0 -2 -1 -2
-1 0 -1 1 -1 2 0 1 0 2 1 2 1 0 1 -1 1 -2z m-879 -16 c0 0 0 -1 -1 0 -1 0 -1
1 -1 2 0 0 0 1 1 1 1 -1 1 -2 1 -3z m872 2 c0 -1 0 -2 -1 -2 -1 -1 -1 0 -1 1
0 1 0 2 1 2 1 0 1 -1 1 -1z m-41 -3 c-1 -1 -1 0 -1 1 0 1 0 2 1 1 0 0 0 -2 0
-2z m35 1 c-1 -1 -1 -1 -1 0 0 1 0 2 1 2 0 -1 0 -1 0 -2z m-828 -5 c0 0 0 -1
-1 0 -1 0 -1 1 0 1 0 1 1 1 1 -1z m795 0 c-1 -1 -1 -1 -1 0 0 1 0 2 1 2 0 -1
0 -1 0 -2z m-2 -3 c0 -1 0 -1 0 -1 -1 0 -1 0 -1 1 -1 1 -1 1 0 1 1 0 1 0 1 -1z
m-17 -16 c-1 -1 -1 -1 -1 0 0 1 1 2 2 1 0 0 0 -1 -1 -1z m45 -1 c0 -1 -1 -2
-1 -2 -1 0 0 1 0 2 2 2 2 2 1 0z m-5 -1 c0 0 0 -1 -1 -1 -1 -1 -1 0 -1 0 0 1
0 2 1 2 1 0 1 0 1 -1z m3 -3 c0 -1 0 -1 -1 -1 -1 -1 -1 -1 -1 0 0 1 0 1 1 1 1
0 1 0 1 0z m-796 -2 c1 0 1 -1 0 -1 -1 -1 -1 0 -1 0 0 2 1 2 1 1z m-2 -3 c0
-1 0 -1 -1 -1 -1 0 -1 0 -1 1 0 1 0 1 0 1 1 0 1 0 2 -1z m758 0 c0 -1 0 -2 -1
-2 -1 0 -1 1 -1 2 0 0 0 1 1 1 1 0 1 -1 1 -1z m-752 -3 c0 -1 -1 0 -1 0 -1 1
-2 2 -2 3 0 0 1 0 2 -1 0 -1 1 -2 1 -2z m788 2 c0 -1 0 -1 0 -1 -1 0 -1 0 -1
1 -1 1 -1 1 0 1 1 0 1 0 1 -1z m-798 -2 c0 -1 0 -1 -1 -1 -1 0 -1 0 -1 1 0 1
0 1 1 1 1 0 1 0 1 -1z m-21 -2 c0 -1 0 -1 -1 -1 -1 0 -1 0 -1 1 0 1 0 1 1 1 1
0 1 0 1 -1z m-3 -3 c0 -1 0 -1 -1 -1 -1 0 -1 0 -1 1 0 1 0 1 0 1 1 0 1 0 2 -1z
m-4 -5 c0 -1 0 -1 -1 0 -1 0 -2 1 -2 1 0 2 2 1 3 -1z m774 -4 c0 -1 -1 -1 -2
-1 0 1 2 4 3 3 1 0 0 -1 -1 -2z m35 -2 c-1 -1 -1 -1 -1 0 0 1 0 3 1 4 0 1 0 1
1 0 0 -1 0 -3 -1 -4z m-802 2 c-1 -1 -1 -1 -1 0 0 1 0 2 1 2 0 -1 0 -1 0 -2z
m39 0 c0 -2 -3 -2 -3 0 0 1 1 1 2 1 0 -1 1 0 1 0 0 1 0 1 1 1 0 0 0 -1 -1 -2z
m-41 -5 c0 -1 0 -1 -1 -1 -1 0 -1 0 -1 1 0 1 0 1 1 1 1 0 1 0 1 -1z m807 0 c0
-1 0 -2 -1 -2 -1 0 -1 1 -1 2 0 0 0 1 1 1 1 0 1 -1 1 -1z m-55 -12 c0 -1 0 -1
0 -1 -1 0 -1 0 -1 1 -1 1 -1 1 0 1 1 0 1 0 1 -1z m-696 -1 c0 -1 0 -1 -1 -1
-1 0 -1 0 -1 1 0 1 0 1 1 1 1 0 1 0 1 -1z m-41 -2 c0 -1 0 -1 -1 -1 -1 0 -1 0
-1 1 0 1 0 1 1 1 1 0 1 0 1 -1z m-3 -4 c0 0 0 -1 -1 0 -1 0 -1 1 -1 1 0 1 0 1
1 1 1 0 1 -1 1 -2z m53 -4 c0 -1 0 -1 -1 -1 -1 0 -1 0 -1 1 0 1 0 1 0 1 1 0 1
0 2 -1z m-48 -2 c0 -1 0 -1 -1 -1 -1 0 -1 0 -1 1 0 1 0 1 0 1 1 0 1 0 2 -1z
m51 -1 c1 -2 -1 -2 -2 -1 -1 1 -1 2 0 2 0 0 1 0 2 -1z m722 0 c0 -1 0 -1 -1
-1 -1 0 -1 0 0 1 0 1 0 1 1 1 0 0 0 0 0 -1z m-13 -1 c0 -1 0 -1 -1 -1 -1 0 -1
0 -1 1 0 1 0 1 1 1 1 0 1 0 1 -1z m-757 -1 c0 -1 0 -1 -1 -1 -1 0 -1 0 -1 1 0
1 0 1 0 1 1 0 1 0 2 -1z m720 -6 c-1 -1 -2 1 -1 2 0 1 0 1 1 0 0 -1 0 -1 0 -2z
m-673 -1 c0 0 0 -1 -1 0 -1 0 -1 1 -1 1 0 1 0 1 1 1 1 0 1 -1 1 -2z m-2 -5 c0
0 0 -1 -1 0 -1 0 -1 1 -1 1 0 1 0 1 1 1 1 0 1 -1 1 -2z m5 1 c0 -1 0 -2 -1 -2
-1 0 -1 1 -1 2 0 0 0 1 1 1 1 0 1 -1 1 -1z m11 -3 c-1 -1 -1 -1 -1 0 0 1 0 2
1 2 0 -1 0 -1 0 -2z m682 0 c0 -1 0 -1 -1 -1 -1 0 -1 0 -1 1 0 1 0 1 1 1 1 0
1 0 1 -1z m6 -2 c-2 0 -3 -1 -3 -1 -1 0 -1 1 1 1 1 1 2 2 3 2 0 0 0 -1 -1 -2z
m-727 0 c0 -1 0 -2 -1 -2 -1 0 -1 1 -1 2 0 0 0 1 1 1 1 0 1 -1 1 -1z m44 -4
c1 -2 1 -2 0 -2 -1 0 -2 1 -2 2 0 0 0 1 0 1 1 0 1 -1 2 -1z m635 -2 c-1 -1 -2
1 -1 2 0 1 0 1 1 0 0 -1 0 -1 0 -2z m-641 0 c0 0 0 -1 -1 0 -1 0 -1 1 -1 1 0
1 0 1 1 1 1 0 1 -1 1 -2z m681 -1 c-1 -1 -1 -1 -2 -1 0 0 0 1 1 2 0 1 0 2 1 2
0 -1 0 -2 0 -3z m5 -1 c0 -2 -1 -3 -1 -3 -1 0 -1 0 0 4 1 3 2 2 1 -1z m-51 0
c0 -1 -1 -2 -2 -2 -1 -1 -1 -1 0 1 1 2 2 3 2 1z m-620 -2 c1 -1 1 -2 0 -2 0 0
-1 1 -2 2 -1 0 -1 1 0 1 0 0 1 -1 2 -1z m615 -3 c0 -1 0 -1 -1 -1 -1 0 -1 0 0
1 0 1 0 1 1 1 0 0 0 0 0 -1z m53 0 c0 -1 0 -1 -1 -1 -1 0 -1 0 0 1 0 1 0 1 1
1 0 0 0 0 0 -1z m-716 -1 c0 -1 -1 -1 -2 -1 0 -1 -1 -1 0 0 0 1 2 1 2 1z m660
-3 c0 -1 0 -1 -1 -1 -1 0 -1 0 0 1 0 1 0 1 1 1 0 0 0 0 0 -1z m-607 0 c0 -1 0
-1 -1 -1 -1 -1 -1 -1 -1 0 0 1 0 1 1 1 1 0 1 0 1 0z m610 -3 c0 -1 0 -1 -1 -1
-1 0 -1 0 -1 1 0 1 0 1 1 1 1 0 1 0 1 -1z m-615 -3 c0 -1 -1 -1 -1 -1 -1 0 -2
0 -2 1 0 1 1 1 2 1 0 0 1 0 1 -1z m7 0 c0 -1 0 -1 -1 -1 -1 0 -1 0 -1 1 0 1 0
1 1 1 1 0 1 0 1 -1z m604 -1 c-1 -1 -2 -1 -2 0 -1 0 -1 1 0 1 2 1 2 1 2 -1z
m-596 -2 c-1 -1 -2 -1 -2 0 -1 0 -1 1 0 1 2 1 2 1 2 -1z m-11 0 c-1 -1 -2 -1
-2 -1 -1 0 -1 0 -1 1 0 1 1 1 2 1 0 0 1 0 1 -1z m648 -2 c-1 -1 -2 -2 -2 -2 0
1 1 4 2 4 1 0 0 -1 0 -2z m-65 -9 c-3 -3 -4 -2 -1 0 1 1 2 2 2 2 0 -1 0 -2 -1
-2z m-609 -3 c-1 -1 -1 -2 -1 -3 1 -1 1 -1 0 -1 -1 0 -2 3 -1 4 2 2 3 1 2 0z
m20 -2 c0 -1 0 -1 -1 -1 -1 0 -1 0 -1 1 0 1 0 1 1 1 1 0 1 0 1 -1z m637 -5 c0
-1 -1 -1 -1 0 -1 0 -1 1 0 1 0 1 1 1 1 0 1 0 1 -1 0 -1z m-590 -2 c1 -1 1 -1
-1 0 -2 1 -3 2 -1 2 0 0 1 -1 2 -2z m528 1 c0 -1 0 -1 -1 -1 -1 0 -1 0 -1 1 0
1 0 1 1 1 1 0 1 0 1 -1z m-577 -10 c0 -1 0 -1 -1 -1 -1 0 -1 0 -1 1 0 1 0 1 1
1 1 0 1 0 1 -1z m14 -3 c0 -1 -1 -1 -2 -1 0 0 -1 0 0 1 0 1 1 1 1 1 1 0 1 0 1
-1z m598 -1 c0 -1 0 -1 -1 -1 -1 0 -1 0 -1 1 0 1 0 1 1 1 1 0 1 0 1 -1z m-56
-1 c0 -1 0 -1 -1 -1 -1 0 -1 0 -1 1 0 1 0 1 1 1 1 0 1 0 1 -1z m63 0 c0 -1 -1
-1 -2 -1 0 0 -1 0 0 1 0 1 1 1 1 1 1 0 1 0 1 -1z m-548 -1 c-1 0 -1 0 -2 0 -1
1 -1 1 0 1 1 0 2 0 2 -1z m-58 -3 c0 -1 -1 -1 -1 -1 -1 0 -2 0 -2 1 0 1 0 1 1
1 0 0 1 0 2 -1z m533 0 c0 -1 -1 -2 -2 -2 -1 0 -2 -1 -2 -1 -1 -1 -1 -1 -1 -1
-1 1 0 2 2 3 4 2 4 2 3 1z m69 0 c0 -1 -1 -1 -2 -1 -1 0 -2 0 -1 1 0 1 1 1 2
1 0 0 1 0 1 -1z m-523 -10 c0 -1 0 -1 -1 -1 -1 0 -1 0 0 1 0 1 0 1 1 1 0 0 0
0 0 -1z m-66 -1 c0 -1 0 -1 -1 -1 -1 0 -1 0 -1 1 0 1 0 1 0 1 1 0 1 0 2 -1z
m71 0 c-1 -1 -2 -2 -3 -2 -1 0 -1 0 0 2 3 1 5 1 3 0z m431 0 c0 -1 0 -1 -1 -1
-1 0 -1 0 0 1 0 1 0 1 1 1 0 0 0 0 0 -1z m71 0 c0 -1 0 -1 -1 -1 -1 0 -1 0 0
1 0 1 0 1 1 1 0 0 0 0 0 -1z m-71 -5 c0 -1 -1 -1 -1 -1 -1 0 -2 0 -2 1 -1 1 0
1 1 1 1 0 2 0 2 -1z m-432 -1 c0 -1 -1 -2 -2 -1 -1 0 0 2 1 2 1 0 1 0 1 -1z
m489 -5 c-1 0 -1 0 -2 0 -1 1 -1 1 0 1 1 0 2 0 2 -1z m-457 -4 c1 -2 1 -2 0
-2 -1 0 -2 1 -3 2 -1 1 -1 1 0 1 1 0 2 -1 3 -1z m371 0 c-1 -1 -2 -1 -2 -1 -1
0 -1 0 0 1 0 1 1 1 1 1 1 0 1 0 1 -1z m72 -2 c0 0 0 -1 -1 -1 -1 -1 -1 0 -1 0
0 1 0 2 1 2 1 0 1 0 1 -1z m-444 -2 c0 -1 -1 -1 -2 -1 -1 0 -1 0 0 1 2 1 2 1
2 0z m359 -1 c-1 0 -1 0 -2 0 -1 1 -1 1 0 1 1 0 2 0 2 -1z m-416 -5 c-1 0 -1
0 -2 0 -1 1 -1 1 0 1 1 0 2 0 2 -1z m488 0 c-1 0 -1 0 -2 0 -1 1 -1 1 0 1 1 0
2 0 2 -1z m-5 -2 c-1 0 -1 0 -2 0 -1 1 -1 1 0 1 1 0 2 0 2 -1z m-477 -1 c0 -1
0 -1 -1 -1 -1 0 -1 0 -1 1 0 1 0 1 1 1 1 0 1 0 1 -1z m-3 -3 l3 -2 -4 2 c-5 3
-6 3 -4 3 1 0 3 -1 5 -3z m477 3 c0 -1 0 -1 -1 -1 -1 -1 -1 -1 -1 0 0 1 0 1 1
1 1 0 1 0 1 0z m7 -1 c-1 0 -1 0 -2 0 -1 1 -1 1 0 1 1 0 2 0 2 -1z m-387 -2
c-1 0 -1 0 -2 0 -1 1 -1 1 0 1 1 0 2 0 2 -1z m-13 -1 c0 -1 -1 -1 -1 -1 -1 0
-2 0 -2 1 0 1 0 1 1 1 0 0 1 0 2 -1z m302 0 c0 -1 0 -1 0 -1 -1 0 -1 0 -1 1
-1 1 -1 1 0 1 1 0 1 0 1 -1z m-307 -2 c0 -1 -1 -1 -1 -1 -1 0 -2 0 -2 1 0 1 1
1 2 1 0 0 1 0 1 -1z m295 -1 c-1 0 -1 0 -2 0 -1 1 -1 1 0 1 1 0 2 0 2 -1z
m-264 -2 c0 0 -2 0 -2 0 -1 1 0 1 1 1 1 0 2 0 1 -1z m355 -2 c0 -1 -1 -1 -1
-1 -1 0 -2 0 -2 1 0 1 1 1 2 1 0 0 1 0 1 -1z m-433 -3 c-1 -1 -2 1 -1 2 0 1 0
1 1 0 0 -1 0 -1 0 -2z m420 2 c0 -1 -1 -1 -1 -1 -1 0 -2 0 -2 1 -1 1 0 1 1 1
1 0 2 0 2 -1z m-5 -3 c0 0 0 -1 -1 0 -1 0 -1 1 0 1 0 1 1 1 1 -1z m-94 0 c0
-1 -1 -1 -3 0 -2 1 -2 1 0 1 2 0 3 0 3 -1z m102 1 c0 -1 -1 -1 -1 -1 -1 -1 -2
-1 -2 0 0 1 1 1 2 1 0 0 1 0 1 0z m-331 -2 c0 -1 -2 -2 -2 -1 -1 1 0 1 0 1 1
0 2 0 2 0z m20 -1 c1 -1 0 -1 -3 -1 -3 0 -4 0 -3 1 1 1 2 1 3 1 1 0 2 0 3 -1z
m307 0 c-1 0 -1 0 -2 0 -1 1 -1 1 0 1 1 0 2 0 2 -1z m-121 -3 c-1 0 -1 0 -2 0
-1 1 -1 1 0 1 1 0 2 0 2 -1z m-7 -1 c0 -1 -1 -1 -2 -1 -1 0 -2 0 -2 1 -1 1 0
1 1 1 2 0 3 0 3 -1z m14 0 c1 -1 1 -1 -2 -1 -2 0 -3 0 -3 1 0 1 2 1 5 0z m-10
-2 c-1 0 -1 0 -2 0 -1 1 -1 1 0 1 1 0 2 0 2 -1z m-275 -2 c-1 -1 -2 -1 -2 -1
-1 0 -1 0 -1 1 0 1 1 1 2 1 0 0 1 0 1 -1z m6 -2 c-1 0 -1 0 -2 0 -1 1 -1 1 0
1 1 0 2 0 2 -1z m7 -1 c0 0 -1 -1 -3 -1 -2 -1 -2 0 -1 1 1 1 4 1 4 0z m7 -1
c0 -1 -1 -1 -3 0 -2 1 -2 1 0 1 2 0 3 0 3 -1z m338 1 c0 -1 -1 -1 -1 -1 -1 -1
-2 -1 -2 0 0 1 1 1 2 1 0 0 1 0 1 0z m-355 -2 c-1 0 -1 0 -2 0 -1 1 -1 1 0 1
1 0 2 0 2 -1z m368 0 c-1 0 -1 0 -2 0 -1 1 -1 1 0 1 1 0 2 0 2 -1z m-5 -2 c-1
0 -1 0 -2 0 -1 1 -1 1 0 1 1 0 2 0 2 -1z m-349 -2 c-1 0 -2 0 -2 1 -1 1 -1 1
0 0 1 0 2 0 2 -1z m13 -5 c0 -1 0 -1 0 -1 -1 0 -1 0 -1 1 -1 1 -1 1 0 1 1 0 1
0 1 -1z m315 0 c0 -1 0 -1 -1 -1 -1 0 -1 0 0 1 0 1 0 1 1 1 0 0 0 0 0 -1z
m-310 -1 c1 0 0 -1 -1 -1 0 -1 -1 0 -1 1 0 1 2 2 2 0z m307 -1 c0 0 -1 0 -2 0
-1 0 -2 0 -2 1 1 1 4 0 4 -1z m-7 -1 c0 -1 -3 -2 -4 -1 0 1 1 1 2 1 1 0 2 0 2
0z m-285 -3 c0 -1 -1 -1 -1 -1 -1 0 -2 0 -2 1 -1 1 0 1 1 1 1 0 2 0 2 -1z m33
-9 c-1 0 -1 0 -2 0 -1 1 -1 1 0 1 1 0 2 0 2 -1z m210 0 c-1 0 -1 0 -2 0 -1 1
-1 1 0 1 1 0 2 0 2 -1z m-202 -2 c-1 0 -1 0 -2 0 -1 1 -1 1 0 1 1 0 2 0 2 -1z
m194 0 c0 0 -2 0 -3 0 -1 1 0 1 2 1 1 0 2 0 1 -1z m-161 -2 c0 0 -2 0 -2 0 -1
1 0 1 1 1 1 0 2 0 1 -1z m125 0 c0 0 -2 0 -2 0 -1 1 0 1 1 1 1 0 2 0 1 -1z
m15 0 c-1 0 -1 0 -2 0 -1 1 -1 1 0 1 1 0 2 0 2 -1z m14 0 c0 0 -2 0 -2 0 -1 1
0 1 1 1 1 0 2 0 1 -1z m-41 -5 c-1 0 -3 0 -4 0 -1 1 -1 1 2 1 2 0 3 0 2 -1z" fill="#D9E9B3" stroke="none"/>
    <path d="M753 807 c2 0 5 0 7 0 2 0 0 1 -3 1 -4 0 -6 -1 -4 -1z" fill="#D9E9B3" stroke="none"/>
    <path d="M63 738 c0 -3 0 -11 1 -17 0 -7 0 -12 1 -12 0 1 -1 34 -2 34 0 0 -1
-2 0 -5z" fill="#D9E9B3" stroke="none"/>
    <path d="M1020 709 c-1 -5 -1 -9 -1 -10 1 0 2 14 2 17 0 1 -1 -3 -1 -7z" fill="#D9E9B3" stroke="none"/>
    <path d="M66 701 c0 -4 1 -9 1 -11 1 -3 1 -2 0 4 0 4 -1 9 -1 11 -1 2 -1 1 0
-4z" fill="#D9E9B3" stroke="none"/>
    <path d="M1018 688 c-1 -3 -2 -8 -2 -11 -1 -7 -1 -11 0 -6 1 5 3 22 3 23 -1 0
-1 -2 -1 -6z" fill="#D9E9B3" stroke="none"/>
    <path d="M68 681 c0 -3 1 -6 1 -7 1 -2 1 -1 0 4 0 7 -1 10 -1 3z" fill="#D9E9B3" stroke="none"/>
    <path d="M70 668 c0 -1 1 -4 1 -5 1 -2 1 -2 1 0 0 1 -1 3 -1 5 -1 2 -1 2 -1 0z" fill="#D9E9B3" stroke="none"/>
    <path d="M1012 653 c-2 -8 -3 -15 -4 -16 0 -2 0 -2 1 -1 1 2 7 30 6 30 0 0 -2
-6 -3 -13z" fill="#D9E9B3" stroke="none"/>
    <path d="M72 658 c0 -1 1 -4 1 -5 1 -2 1 -2 1 0 0 1 -1 3 -1 5 -1 2 -1 2 -1 0z" fill="#D9E9B3" stroke="none"/>
    <path d="M74 648 c0 -1 1 -3 1 -4 l1 -2 0 2 c0 1 -1 3 -1 4 l-1 3 0 -3z" fill="#D9E9B3" stroke="none"/>
    <path d="M76 640 c0 -2 1 -4 1 -5 1 -2 1 -2 1 0 0 1 -1 3 -1 4 -1 2 -1 2 -1 1z" fill="#D9E9B3" stroke="none"/>
    <path d="M1007 631 c-1 -2 -1 -3 -1 -4 1 0 1 1 2 3 0 2 0 3 0 4 -1 0 -1 -1 -1
-3z" fill="#D9E9B3" stroke="none"/>
    <path d="M79 630 c1 -7 4 -19 5 -19 0 -1 0 3 -2 8 -2 10 -4 16 -3 11z" fill="#D9E9B3" stroke="none"/>
    <path d="M1005 624 c-3 -9 -3 -11 -3 -12 1 0 2 3 2 7 1 3 2 7 2 7 -1 0 -1 -1
-1 -2z" fill="#D9E9B3" stroke="none"/>
    <path d="M1001 610 c-1 -1 -2 -4 -2 -6 -1 -3 -2 -6 -2 -6 1 0 2 2 5 12 0 0 0
1 -1 1 0 0 0 -1 0 -1z" fill="#D9E9B3" stroke="none"/>
    <path d="M85 607 c0 -1 1 -2 1 -3 1 -2 1 -2 1 -1 0 1 -1 2 -1 4 -1 1 -1 1 -1
0z" fill="#D9E9B3" stroke="none"/>
    <path d="M87 601 c0 -1 3 -11 6 -16 1 -4 3 -9 3 -10 1 -2 1 -3 2 -3 0 1 -2 5
-9 25 -1 2 -1 4 -2 4 0 0 0 0 0 0z" fill="#D9E9B3" stroke="none"/>
    <path d="M996 594 c-1 -2 -1 -3 0 -1 1 1 1 2 1 3 -1 0 -1 -1 -1 -2z" fill="#D9E9B3" stroke="none"/>
    <path d="M994 589 c-1 -2 -1 -3 0 -1 1 1 1 2 1 3 -1 0 -1 -1 -1 -2z" fill="#D9E9B3" stroke="none"/>
    <path d="M990 579 c-4 -10 -4 -11 -2 -8 1 4 5 14 5 15 -1 0 -2 -3 -3 -7z" fill="#D9E9B3" stroke="none"/>
    <path d="M98 571 c0 -1 0 -2 1 -3 1 -1 1 -1 1 0 0 0 0 1 -1 2 -1 1 -1 1 -1 1z" fill="#D9E9B3" stroke="none"/>
    <path d="M982 560 c-2 -4 -4 -9 -5 -11 -1 -3 -2 -4 -1 -3 2 2 11 21 10 22 -1
0 -2 -3 -4 -8z" fill="#D9E9B3" stroke="none"/>
    <path d="M100 565 c0 0 1 -3 3 -5 1 -3 2 -6 2 -6 0 -1 1 -3 2 -4 1 -2 0 1 -2
6 -4 9 -5 11 -5 9z" fill="#D9E9B3" stroke="none"/>
    <path d="M109 547 c0 -2 12 -25 19 -37 2 -3 3 -5 2 -5 0 -1 1 -1 1 -1 2 -1 3
0 1 1 -1 1 -13 22 -19 35 -2 4 -4 7 -4 7z" fill="#D9E9B3" stroke="none"/>
    <path d="M973 540 c-1 -2 -2 -3 -2 -4 1 0 2 1 3 3 0 2 1 4 1 5 0 0 -1 -2 -2
-4z" fill="#D9E9B3" stroke="none"/>
    <path d="M970 534 c-5 -7 -10 -18 -9 -18 0 1 2 3 3 6 1 2 3 6 5 8 1 2 2 4 2 5
-1 0 -1 0 -1 -1z" fill="#D9E9B3" stroke="none"/>
    <path d="M957 511 c-2 -3 -3 -5 -2 -5 0 0 5 8 5 9 -1 0 -2 -2 -3 -4z" fill="#D9E9B3" stroke="none"/>
    <path d="M952 504 c0 -1 -1 -3 -2 -4 -1 -1 -1 -2 0 -2 0 0 4 7 4 7 -1 0 -1 -1
-2 -1z" fill="#D9E9B3" stroke="none"/>
    <path d="M135 498 c6 -9 7 -11 8 -11 1 -1 -1 2 -4 7 -5 8 -8 11 -4 4z" fill="#D9E9B3" stroke="none"/>
    <path d="M942 487 c-7 -11 -7 -11 1 -1 4 7 6 11 6 11 -1 0 -4 -4 -7 -10z" fill="#D9E9B3" stroke="none"/>
    <path d="M145 482 c1 -1 2 -3 3 -4 1 0 1 -1 0 -2 0 -1 0 -2 1 -2 1 1 3 -1 15
-17 5 -7 6 -8 15 -19 8 -9 39 -41 48 -48 l7 -5 -6 5 c-3 3 -10 9 -15 14 -22
21 -42 45 -61 71 -8 11 -9 12 -7 7z" fill="#D9E9B3" stroke="none"/>
    <path d="M929 469 c-2 -3 -3 -5 -3 -5 0 -1 2 2 4 5 5 6 4 7 -1 0z" fill="#D9E9B3" stroke="none"/>
    <path d="M912 447 c-12 -15 -29 -32 -49 -52 -7 -6 -10 -9 -7 -7 11 10 13 12
15 13 11 11 32 33 36 38 3 4 7 9 8 10 8 10 10 13 10 13 -1 0 -6 -7 -13 -15z" fill="#D9E9B3" stroke="none"/>
    <path d="M242 378 c0 -1 2 -2 2 -2 0 0 -1 1 -1 2 -1 1 -3 2 -3 2 0 0 1 -1 2
-2z" fill="#D9E9B3" stroke="none"/>
    <path d="M842 377 l-2 -2 2 2 c2 1 3 2 3 3 0 0 -1 0 -3 -3z" fill="#D9E9B3" stroke="none"/>
    <path d="M246 375 c0 -1 1 -1 2 -2 1 -1 1 -1 0 0 -1 2 -2 2 -2 2z" fill="#D9E9B3" stroke="none"/>
    <path d="M836 373 l-1 -2 2 1 c1 1 2 2 2 3 0 0 -1 0 -3 -2z" fill="#D9E9B3" stroke="none"/>
    <path d="M250 372 c0 -1 1 -1 2 -2 1 -1 1 -1 0 0 -1 2 -2 2 -2 2z" fill="#D9E9B3" stroke="none"/>
    <path d="M256 367 c0 -1 2 -2 2 -2 0 0 -1 1 -1 2 -1 1 -3 2 -3 2 0 0 1 -1 2
-2z" fill="#D9E9B3" stroke="none"/>
    <path d="M822 362 c-3 -3 -3 -3 0 -1 1 1 3 3 4 3 0 2 0 1 -4 -2z" fill="#D9E9B3" stroke="none"/>
    <path d="M816 357 c-1 -1 -1 -1 0 0 2 1 2 2 2 2 -1 0 -1 -1 -2 -2z" fill="#D9E9B3" stroke="none"/>
    <path d="M807 351 c-2 -1 -4 -2 -4 -3 0 0 2 1 4 3 3 2 5 3 4 3 0 0 -2 -1 -4
-3z" fill="#D9E9B3" stroke="none"/>
    <path d="M798 345 c-1 -1 -1 -1 0 0 1 1 2 1 2 2 0 0 -1 0 -2 -2z" fill="#D9E9B3" stroke="none"/>
    <path d="M290 343 c1 -1 4 -2 5 -3 8 -4 9 -5 8 -6 -1 -1 -1 -1 0 -1 1 1 4 0 6
-1 1 -1 3 -2 4 -2 0 0 -5 4 -12 8 -13 7 -14 8 -11 5z" fill="#D9E9B3" stroke="none"/>
    <path d="M787 339 c-3 -2 -8 -4 -10 -6 -3 -1 -5 -2 -5 -2 0 -1 5 1 10 4 3 2 6
4 8 4 2 1 4 2 4 3 0 1 0 1 -7 -3z" fill="#D9E9B3" stroke="none"/>
    <path d="M314 329 c1 0 4 -2 7 -4 3 -1 11 -5 17 -8 6 -3 13 -6 15 -6 2 -1 2
-1 0 0 -1 1 -10 5 -19 9 -20 10 -20 10 -20 9z" fill="#D9E9B3" stroke="none"/>
    <path d="M763 326 c-5 -2 -8 -4 -8 -5 1 0 14 7 15 8 2 2 1 1 -7 -3z" fill="#D9E9B3" stroke="none"/>
    <path d="M752 320 c-1 -1 -1 -1 0 -1 0 0 1 0 2 1 0 1 0 1 -1 1 0 0 -1 0 -1 -1z" fill="#D9E9B3" stroke="none"/>
    <path d="M734 312 c-8 -4 -15 -7 -16 -7 0 0 -2 -1 -5 -2 -2 -1 -4 -2 -5 -2 -1
0 -2 0 -3 -1 -1 0 -3 -2 -6 -3 -2 -1 -4 -1 -4 -2 1 0 2 1 4 1 2 1 8 4 14 6 13
5 37 16 37 17 0 0 0 0 -16 -7z" fill="#D9E9B3" stroke="none"/>
    <path d="M357 309 c0 0 3 -2 6 -3 2 -1 7 -3 11 -4 3 -2 7 -3 7 -3 1 1 0 1 -2
2 -2 0 -7 2 -12 4 -11 5 -12 5 -10 4z" fill="#D9E9B3" stroke="none"/>
    <path d="M386 297 c2 -1 4 -2 5 -2 1 0 0 1 -3 2 -5 3 -7 3 -2 0z" fill="#D9E9B3" stroke="none"/>
    <path d="M394 294 c1 -1 2 -1 3 -1 1 0 1 0 0 1 -3 1 -5 1 -3 0z" fill="#D9E9B3" stroke="none"/>
    <path d="M692 294 c1 0 1 0 2 0 0 1 -1 1 -2 1 -1 0 -1 0 0 -1z" fill="#D9E9B3" stroke="none"/>
    <path d="M415 287 c1 0 1 0 2 0 0 1 -1 1 -2 1 -1 0 -1 0 0 -1z" fill="#D9E9B3" stroke="none"/>
    <path d="M666 286 c1 0 1 0 2 0 0 1 -1 1 -2 1 -1 0 -1 0 0 -1z" fill="#D9E9B3" stroke="none"/>
    <path d="M660 285 c-1 -1 -1 -1 0 -1 0 0 1 0 2 1 0 1 0 1 -2 0z" fill="#D9E9B3" stroke="none"/>
    <path d="M653 283 c-2 -1 -2 -1 -1 -1 1 0 2 0 3 1 2 1 0 1 -2 0z" fill="#D9E9B3" stroke="none"/>
    <path d="M645 281 c-3 -1 -3 -1 -1 -1 1 0 3 0 4 1 2 1 1 1 -3 0z" fill="#D9E9B3" stroke="none"/>
    <path d="M442 280 c0 0 2 0 2 0 1 1 0 1 -1 1 -1 0 -2 0 -1 -1z" fill="#D9E9B3" stroke="none"/>
    <path d="M638 279 c1 0 1 0 2 0 0 1 -1 1 -2 1 -1 0 -1 0 0 -1z" fill="#D9E9B3" stroke="none"/>
    <path d="M452 278 c1 0 3 0 3 0 1 1 0 1 -1 1 -2 0 -3 0 -2 -1z" fill="#D9E9B3" stroke="none"/>
    <path d="M631 278 c1 0 3 0 3 0 1 1 0 1 -1 1 -2 0 -3 0 -2 -1z" fill="#D9E9B3" stroke="none"/>
    <path d="M469 275 c3 0 11 -1 16 -1 l10 -1 -13 2 c-15 2 -23 2 -13 0z" fill="#D9E9B3" stroke="none"/>
    <path d="M606 275 c-8 -1 -10 -2 -7 -2 2 0 9 1 15 2 6 1 9 2 7 2 -3 0 -9 -1
-15 -2z" fill="#D9E9B3" stroke="none"/>
    <path d="M501 272 c3 -1 19 -1 18 -1 0 1 -5 1 -11 1 -6 1 -9 0 -7 0z" fill="#D9E9B3" stroke="none"/>
    <path d="M576 272 l-9 -1 9 0 c4 0 10 0 13 1 l4 1 -4 0 c-2 0 -8 -1 -13 -1z" fill="#D9E9B3" stroke="none"/>
    <path d="M521 271 c0 -1 2 -1 4 -1 3 1 3 1 -1 1 -2 0 -4 0 -3 0z" fill="#D9E9B3" stroke="none"/>
    <path d="M561 271 l-4 -1 3 0 c2 0 4 0 5 1 2 1 1 1 -4 0z" fill="#D9E9B3" stroke="none"/>
    <path d="M118 804 c-3 0 -3 -1 -3 -4 0 -7 1 -13 3 -13 1 0 1 -1 1 -6 0 -7 2
-14 3 -14 0 0 1 -2 1 -4 0 -2 1 -6 2 -10 1 -3 2 -6 2 -7 0 -1 1 -2 1 -3 1 0 2
-2 2 -4 0 -1 0 -4 1 -4 0 -1 2 -4 2 -7 1 -3 3 -6 3 -6 0 0 1 -2 1 -4 1 -2 2
-5 3 -7 1 -1 2 -3 1 -3 0 0 0 -1 1 -1 1 -1 2 -2 2 -3 0 -3 4 -11 5 -11 0 0 1
-1 1 -3 1 -2 2 -4 3 -5 1 -1 2 -3 1 -4 0 -1 0 -1 1 -1 1 0 2 0 2 -2 0 -3 5
-12 6 -13 1 -1 2 -1 2 -2 0 -1 0 -1 1 -2 0 0 2 -3 5 -7 2 -4 5 -8 6 -9 1 -1 2
-2 2 -2 0 -1 2 -4 5 -8 3 -4 5 -7 5 -8 1 -2 10 -11 11 -11 0 1 1 0 0 -1 0 -2
0 -2 1 -2 1 1 2 1 2 0 -1 -1 1 -4 7 -10 2 -2 4 -3 4 -3 2 1 3 -1 1 -2 0 -1 2
-4 5 -7 3 -4 6 -7 6 -8 -1 0 0 -1 0 -1 3 1 15 -12 15 -14 -1 0 -1 -1 0 0 1 0
3 -1 5 -3 3 -3 5 -4 7 -3 1 0 1 0 1 -1 -1 -1 1 -3 3 -5 2 -2 5 -5 6 -6 2 -1 3
-2 4 -1 2 0 2 0 1 -1 -1 -1 5 -7 7 -7 1 1 2 0 2 -2 1 -1 2 -2 3 -2 0 0 4 -2 7
-4 3 -3 7 -5 7 -5 1 0 3 -1 5 -2 1 -2 3 -3 3 -3 1 0 3 -1 4 -3 2 -2 4 -3 4 -3
1 0 3 -1 5 -2 2 -2 4 -3 5 -3 1 0 2 -1 3 -2 1 -1 2 -2 3 -2 1 0 3 -1 4 -2 1
-1 3 -2 3 -2 1 0 7 -3 15 -7 7 -3 17 -8 21 -9 3 -2 8 -4 10 -4 2 -1 5 -2 7 -3
2 -1 5 -2 6 -2 1 0 2 -1 3 -1 1 -1 3 -2 5 -2 2 -1 4 -1 4 -2 0 -1 1 -1 3 -1 3
0 13 -3 14 -4 0 0 3 -1 5 -1 3 -1 7 -2 9 -2 3 -1 6 -2 7 -2 2 0 3 0 3 -1 1 -1
13 -3 14 -3 0 1 3 0 6 -1 6 -1 9 -2 15 -2 3 0 4 -1 4 -2 -1 -1 4 -1 60 -1 50
0 56 0 57 1 2 1 8 2 14 3 3 0 6 0 7 1 1 0 4 1 8 1 3 1 7 2 8 2 2 1 4 2 7 2 9
2 33 9 36 10 1 0 3 1 5 2 2 0 4 1 5 2 0 0 1 1 2 1 2 0 4 1 7 2 2 1 5 2 7 3 2
0 4 1 4 1 0 1 6 3 7 3 0 -1 1 0 2 1 0 1 2 1 4 1 3 0 4 1 3 2 0 1 1 1 2 1 2 0
3 0 3 1 0 0 7 4 14 8 8 3 15 7 16 8 2 1 3 2 3 2 1 0 4 2 7 4 3 2 8 4 10 6 2 1
5 3 5 4 1 0 2 1 2 1 1 0 2 1 2 2 1 0 2 1 3 1 1 0 2 0 2 1 1 2 8 6 10 6 1 0 2
1 2 2 0 1 1 2 2 3 1 0 4 2 5 3 2 2 4 3 4 3 1 0 2 0 3 1 0 2 2 3 3 3 1 0 2 1 1
1 0 2 13 12 14 11 1 0 1 0 1 1 -1 1 26 28 28 28 0 0 1 0 1 1 -1 0 0 2 1 3 1 1
3 4 5 6 2 3 4 5 5 5 0 -1 1 -1 1 0 -1 0 0 2 2 3 1 2 2 4 2 5 -1 1 -1 1 0 1 1
-1 6 4 6 6 0 1 1 2 2 2 2 0 3 1 3 3 0 2 1 3 2 3 0 0 1 1 1 2 0 1 1 2 1 2 1 1
3 3 4 5 1 3 3 6 4 7 3 3 8 11 11 17 2 3 4 6 5 6 0 0 1 1 1 2 0 1 1 4 2 6 6 10
8 14 8 16 0 2 3 6 4 5 1 0 1 1 1 3 0 2 2 7 4 11 4 10 5 10 7 18 0 4 2 7 2 8 1
0 1 1 1 2 0 1 1 2 2 2 1 0 1 1 1 2 -1 1 0 5 1 8 1 3 2 8 3 10 0 2 1 5 1 5 1 1
1 3 2 5 0 2 1 6 2 9 0 3 1 7 1 9 0 2 0 4 1 4 1 0 1 1 1 3 0 1 0 3 1 4 1 0 0 1
-2 2 -2 1 -115 1 -425 1 -233 0 -424 -1 -426 -1z m237 -83 c9 -9 13 -31 7 -40
-4 -6 -12 -8 -19 -3 -4 3 -6 12 -5 21 2 11 9 25 13 25 1 0 3 -1 4 -3z m381 1
c2 -1 3 -4 4 -5 1 -2 3 -4 3 -4 1 0 1 0 1 -1 -1 -1 0 -2 0 -4 2 -4 4 -15 3
-20 -1 -6 -4 -10 -9 -12 -4 -2 -4 -2 -9 0 -3 2 -4 3 -6 7 -3 6 -4 12 -2 20 1
3 2 7 2 8 0 1 1 2 1 3 1 0 2 2 3 3 2 3 5 7 6 7 0 0 2 -1 3 -2z m-491 0 c1 -1
3 -3 4 -4 0 -2 1 -4 2 -5 0 -1 2 -4 3 -7 2 -8 2 -16 -1 -23 -1 -4 -2 -5 -6 -7
-5 -2 -5 -2 -9 0 -3 1 -5 2 -6 5 0 2 -1 3 -2 3 -1 0 -2 9 -1 15 1 10 8 24 11
24 1 0 3 -1 5 -1z m604 -2 c2 -2 3 -4 3 -4 0 -1 1 -4 3 -7 2 -5 2 -7 2 -14 0
-8 0 -10 -2 -14 -3 -4 -5 -6 -11 -6 -7 0 -11 5 -13 16 -1 4 -1 6 1 13 1 5 3 9
3 10 1 0 2 2 2 3 1 3 5 6 7 6 1 0 3 -1 5 -3z m-350 -29 c0 -2 1 -3 2 -3 1 0 1
-1 1 -1 0 -1 1 -4 2 -6 2 -4 2 -6 2 -14 1 -13 -1 -16 -6 -19 -9 -5 -16 0 -19
13 -1 4 -1 6 1 13 2 8 7 18 9 19 3 2 6 1 8 -2z m114 -3 c2 -2 4 -5 4 -6 0 -1
1 -3 2 -6 3 -6 2 -19 -1 -24 -2 -4 -7 -7 -11 -7 -3 0 -8 4 -10 8 -3 3 -3 5 -3
11 0 8 3 19 6 22 0 1 1 2 1 3 0 2 3 4 5 4 2 0 4 -2 7 -5z m-205 -81 c1 -1 6
-8 6 -9 0 0 1 -3 2 -5 2 -5 4 -15 3 -21 -1 -7 -7 -13 -13 -13 -5 0 -10 4 -12
11 -2 6 -2 7 0 16 1 8 5 17 8 20 1 2 4 2 6 1z m276 -4 c2 -2 4 -5 4 -6 0 0 0
-1 1 -1 1 0 2 -6 4 -15 1 -5 1 -6 -1 -11 -5 -12 -15 -15 -23 -5 -2 3 -3 12 -2
17 1 11 9 26 13 26 0 0 3 -2 4 -5z m-460 -11 c1 -1 1 -1 1 -2 -1 0 -6 4 -6 6
0 0 2 -1 5 -4z m7 -8 c0 -1 -1 0 -2 1 -1 1 -2 2 -2 3 0 1 1 0 2 -1 1 -1 2 -2
2 -3z m15 -14 c0 -1 0 -1 -1 -1 -1 0 -1 0 -1 1 0 1 0 1 0 1 1 0 1 0 2 -1z m15
-9 c-1 -1 -2 -1 -2 -1 -1 0 -1 0 -1 1 0 1 1 1 2 1 0 0 1 0 1 -1z m286 -2 c4
-5 9 -19 9 -28 0 -5 -2 -12 -4 -14 -3 -3 -9 -4 -14 -2 -3 1 -5 2 -6 6 -4 8 -4
17 1 29 5 10 9 14 14 9z m249 -24 c-1 -1 -2 -2 -2 -1 -1 0 0 1 1 2 2 2 4 1 1
-1z m-477 -14 c-1 0 -1 0 -2 0 -1 1 -1 1 0 1 1 0 2 0 2 -1z m32 -16 c0 -1 0
-1 -1 -1 -1 -1 -1 -1 -1 0 0 1 0 1 1 1 1 0 1 0 1 0z m36 -16 c0 0 -2 0 -2 0
-1 1 0 1 1 1 1 0 2 0 1 -1z m38 -17 c0 -1 0 -1 -1 -1 -1 0 -1 0 -1 1 0 1 0 1
0 1 1 0 1 0 2 -1z m59 -12 c-1 0 -1 0 -2 0 -1 1 -1 1 0 1 1 0 2 0 2 -1z" fill="#D42125" stroke="none"/>
    <path d="M240 720 c0 0 -2 -2 -2 -4 -1 -3 -3 -5 -3 -5 -1 0 -2 -4 -3 -9 -2 -6
-2 -8 -1 -11 3 -11 6 -15 12 -14 5 1 7 3 9 11 1 7 1 7 0 14 -3 12 -8 20 -12
18z" fill="#000000" stroke="none"/>
    <path d="M350 720 c-1 -1 -6 -8 -6 -9 0 -1 0 -2 -1 -3 -2 -1 -3 -12 -2 -18 1
-14 15 -18 20 -6 2 7 1 20 -2 27 -3 6 -7 10 -9 9z" fill="#000000" stroke="none"/>
    <path d="M731 718 c-1 -1 -2 -3 -2 -4 0 -1 -1 -2 -1 -2 0 0 -1 0 -1 0 0 -1 -1
-2 -2 -4 -1 -2 -1 -4 -1 -6 1 -2 1 -3 0 -3 -2 0 -1 -12 2 -16 2 -5 4 -6 8 -6
4 0 9 5 10 10 1 5 1 13 -1 18 0 2 -1 4 -2 5 0 1 -1 3 -2 4 -1 1 -2 3 -3 4 -3
4 -3 4 -5 0z" fill="#000000" stroke="none"/>
    <path d="M840 716 c-2 -2 -3 -4 -3 -5 0 -1 0 -2 -1 -3 -1 0 -1 -2 -2 -5 0 -2
0 -5 -1 -6 0 -4 3 -14 6 -18 1 -1 3 -2 5 -2 3 0 8 3 8 4 0 1 1 2 2 3 2 3 2 16
0 22 -1 2 -2 4 -2 5 0 2 0 2 -1 2 -1 -1 -2 0 -2 1 0 2 -3 6 -4 6 -1 0 -3 -2
-5 -4z" fill="#000000" stroke="none"/>
    <path d="M491 690 c0 -1 -1 -3 -2 -5 -1 -3 -3 -6 -4 -7 -1 -2 -1 -6 -1 -13 l0
-9 3 -4 c6 -5 8 -5 13 0 3 2 4 4 5 8 0 6 0 14 -2 18 -1 2 -2 4 -2 4 0 1 -1 3
-3 5 -2 4 -5 5 -7 3z" fill="#000000" stroke="none"/>
    <path d="M605 689 c-2 0 -2 -2 -2 -2 0 -1 -1 -2 -1 -3 -3 -3 -5 -12 -5 -20 0
-10 4 -16 12 -16 2 0 3 1 4 2 0 0 1 1 2 1 0 0 1 2 1 4 1 2 2 4 2 5 3 1 -1 17
-6 25 -4 6 -5 7 -7 4z" fill="#000000" stroke="none"/>
    <path d="M403 603 c-1 -1 -3 -5 -4 -8 -3 -5 -3 -6 -3 -16 0 -10 0 -11 2 -13 5
-6 10 -6 14 -1 7 7 6 18 -2 35 -2 6 -5 7 -7 3z" fill="#000000" stroke="none"/>
    <path d="M677 603 c-2 -3 -4 -8 -7 -14 -1 -4 -1 -7 -1 -13 1 -8 1 -9 4 -12 5
-4 9 -4 14 1 3 3 3 4 3 15 0 6 0 9 -1 11 -1 1 -2 3 -2 3 0 2 -6 11 -7 11 -1 0
-2 -1 -3 -2z m3 -3 c0 -1 0 -1 -1 -1 -1 0 -1 1 -1 2 0 0 0 1 1 1 1 -1 1 -2 1
-2z" fill="#000000" stroke="none"/>
    <path d="M540 556 c-2 -2 -3 -4 -3 -5 0 -1 0 -2 -1 -3 -3 -1 -5 -15 -4 -21 2
-7 6 -11 11 -11 8 0 13 9 10 22 -1 6 -7 20 -10 20 0 1 -2 0 -3 -2z" fill="#000000" stroke="none"/>
    <path d="M380 428 c0 -1 0 -1 1 -1 0 0 0 0 0 1 0 1 0 1 -1 1 -1 0 -1 0 0 -1z" fill="#000000" stroke="none"/>
    <path d="M484 404 c1 0 1 0 2 0 0 1 -1 1 -2 1 -1 0 -1 0 0 -1z" fill="#000000" stroke="none"/>
    <path d="M600 404 c1 0 1 0 2 0 0 1 -1 1 -2 1 -1 0 -1 0 0 -1z" fill="#000000" stroke="none"/>
    <path d="M226 399 c0 -1 0 -1 1 -1 0 0 0 0 0 1 0 1 0 1 -1 1 -1 0 -1 0 0 -1z" fill="#000000" stroke="none"/>
    <path d="M255 371 c1 -1 2 -2 2 -2 1 0 0 1 0 2 -1 0 -2 1 -3 1 0 0 0 -1 1 -1z" fill="#000000" stroke="none"/>
    <path d="M264 364 c0 -1 0 -1 1 -1 1 0 1 0 1 1 0 1 0 1 -1 1 -1 0 -1 0 -1 -1z" fill="#000000" stroke="none"/>
    <path d="M405 293 c1 0 1 0 2 0 0 1 -1 1 -2 1 -1 0 -1 0 0 -1z" fill="#000000" stroke="none"/>
    <path d="M430 286 c0 -1 1 -1 1 -1 1 0 1 0 1 1 0 1 -1 1 -2 1 0 0 -1 0 0 -1z" fill="#000000" stroke="none"/>
    <path d="M454 281 c0 -1 1 -1 2 -1 2 0 3 1 1 1 -1 1 -2 0 -3 0z" fill="#000000" stroke="none"/>
    <path d="M628 280 c1 0 3 0 3 0 1 1 0 1 -1 1 -2 0 -3 0 -2 -1z" fill="#000000" stroke="none"/>
  </g>
</svg>